<svg version="1.0" xmlns="http://www.w3.org/2000/svg"
     width="512.000000pt" height="512.000000pt" viewBox="0 0 512.000000 512.000000"
     preserveAspectRatio="xMidYMid meet">

    <g transform="translate(0.000000,512.000000) scale(0.100000,-0.100000)"
       fill="#000000" stroke="none">
        <path d="M0 2560 l0 -2560 2560 0 2560 0 0 2560 0 2560 -2560 0 -2560 0 0
-2560z m3022 1971 c483 -71 693 -169 783 -364 87 -187 128 -465 142 -951 5
-197 4 -236 -8 -236 -7 0 -61 16 -118 36 -93 32 -110 42 -147 83 -96 107 -269
153 -450 120 -90 -17 -266 -114 -308 -172 l-21 -28 43 -41 43 -40 312 6 c172
4 342 12 379 17 62 10 140 4 251 -17 l27 -6 0 -148 c0 -209 -16 -257 -114
-354 -149 -148 -191 -162 -474 -159 -143 1 -192 -2 -189 -10 7 -23 56 -37 161
-49 125 -13 133 -17 116 -49 -26 -50 -114 -160 -158 -200 -61 -54 -167 -105
-263 -125 -112 -25 -141 -16 -216 62 -34 35 -68 64 -75 64 -7 0 -32 -14 -56
-30 -53 -36 -119 -47 -191 -32 -65 14 -99 34 -111 68 -11 27 0 156 26 308 11
66 16 179 17 430 2 304 0 348 -16 406 -34 119 -81 193 -183 287 -195 180 -311
250 -432 260 -80 7 -122 -1 -122 -22 0 -18 39 -36 135 -64 81 -23 124 -52 263
-174 90 -79 105 -97 148 -179 l47 -92 -6 -190 c-6 -205 -34 -408 -67 -483 -12
-28 -33 -51 -62 -69 -68 -44 -98 -75 -108 -116 -15 -54 4 -122 47 -165 46 -45
67 -41 73 17 5 43 48 131 71 146 30 18 40 -42 25 -157 -7 -54 -6 -59 23 -92
47 -53 41 -81 -28 -132 -65 -47 -173 -26 -363 72 -64 33 -103 61 -146 107 -63
68 -117 151 -107 166 3 6 37 10 74 10 61 0 228 28 274 45 9 4 17 14 17 22 0
13 -9 14 -47 9 -27 -3 -130 -9 -230 -13 l-182 -6 -54 27 c-100 48 -198 178
-268 352 l-31 79 5 335 c6 349 14 452 48 660 47 285 105 443 192 528 143 139
433 223 912 262 177 14 539 4 697 -19z m-1756 -2122 c14 -23 47 -92 74 -153
51 -119 89 -186 220 -391 156 -242 241 -389 330 -571 50 -100 96 -187 104
-193 25 -21 27 6 6 88 -15 60 -19 104 -17 178 l3 98 28 -3 c16 -2 60 -16 100
-31 39 -16 101 -38 138 -49 100 -31 124 -46 147 -95 29 -61 27 -115 -10 -200
-40 -93 -40 -150 0 -328 17 -75 31 -149 31 -164 0 -26 -2 -27 -37 -20 -102 19
-195 103 -322 290 -41 61 -103 147 -138 191 -111 144 -387 603 -515 857 -101
202 -219 513 -200 531 14 15 34 3 58 -35z m2584 -68 c0 -49 -56 -254 -99 -363
-73 -181 -208 -411 -506 -863 -173 -261 -259 -373 -342 -441 -60 -49 -155 -99
-209 -110 -47 -9 -50 15 -18 148 37 154 42 274 15 352 -34 97 -29 143 24 220
25 37 45 68 45 70 0 10 -79 18 -235 26 -264 12 -418 60 -561 174 -122 98 -336
323 -399 420 -54 83 -95 175 -110 246 l-7 35 20 -20 c11 -11 53 -81 92 -155
39 -74 87 -154 106 -177 102 -124 400 -265 592 -279 42 -3 91 -12 108 -20 17
-7 84 -18 148 -25 124 -12 106 -13 411 33 103 15 189 44 289 96 126 66 185
128 280 292 137 235 164 265 151 168 -17 -121 -67 -210 -223 -391 -56 -64
-102 -120 -102 -123 0 -3 15 7 34 21 35 26 52 22 39 -11 -8 -21 -136 -240
-222 -379 -64 -105 -83 -163 -37 -115 29 30 308 444 400 594 89 143 154 273
215 430 53 134 74 176 91 176 6 0 10 -13 10 -29z m-1150 -707 c0 -16 -13 -17
-157 -10 -86 3 -159 8 -161 11 -7 7 41 74 98 135 l51 55 85 -87 c46 -48 84
-95 84 -104z m-130 -690 c0 -13 -4 -24 -10 -24 -5 0 -10 14 -10 31 0 17 4 28
10 24 6 -3 10 -17 10 -31z"/>
        <path d="M3165 3814 c-33 -8 -103 -35 -155 -61 -75 -36 -110 -61 -171 -122
-45 -44 -81 -88 -85 -104 -9 -38 12 -104 37 -117 28 -16 50 -6 132 59 241 191
357 240 540 229 100 -7 148 -27 240 -104 37 -31 67 -52 67 -47 0 5 -13 29 -28
54 -46 71 -134 146 -219 186 -72 35 -83 37 -187 40 -74 2 -131 -2 -171 -13z"/>
        <path d="M1668 3809 c-62 -14 -157 -68 -210 -117 -45 -42 -108 -133 -108 -155
0 -5 30 18 66 52 91 83 135 103 248 109 169 9 334 -57 496 -198 86 -75 124
-100 151 -100 5 0 21 11 34 25 30 29 33 80 9 131 -44 92 -243 219 -392 249
-79 16 -234 18 -294 4z"/>
        <path d="M3265 3656 c-101 -32 -214 -108 -341 -228 -99 -94 -156 -179 -152
-228 2 -19 8 -35 15 -35 6 0 64 50 130 112 151 142 278 250 323 272 19 10 67
28 105 39 83 25 111 43 102 66 -5 13 -20 16 -74 15 -37 0 -86 -6 -108 -13z"/>
        <path d="M1695 3219 c-107 -16 -172 -46 -241 -115 -45 -44 -73 -64 -98 -68
-38 -7 -43 -18 -26 -62 8 -20 7 -39 -6 -76 -17 -52 -14 -69 9 -49 37 30 176
51 437 66 369 20 389 24 434 74 38 42 7 80 -136 159 -116 64 -248 89 -373 71z"/>
        <path d="M2834 2365 c-10 -24 1 -38 37 -50 39 -13 74 -59 91 -119 14 -51 17
-54 28 -36 31 48 -10 148 -79 193 -46 30 -69 34 -77 12z"/>
    </g>
</svg>
